HIERARCHY
ROOT joint_Root
{
	OFFSET 0.0 0.0 0.0
	CHANNELS 6 Xposition Yposition Zposition Zrotation Xrotation Yrotation 
	JOINT Hips
	{
		OFFSET -0.726466 93.3139 -2.00062
		CHANNELS 6 Xposition Yposition Zposition Zrotation Xrotation Yrotation 
		JOINT Spine
		{
			OFFSET 15.7357 0.0 0.0
			CHANNELS 6 Xposition Yposition Zposition Zrotation Xrotation Yrotation 
			JOINT Chest
			{
				OFFSET 8.98455 -0.406207 0.0
				CHANNELS 6 Xposition Yposition Zposition Zrotation Xrotation Yrotation 
				JOINT Neck
				{
					OFFSET 16.3773 0.0 0.0
					CHANNELS 6 Xposition Yposition Zposition Zrotation Xrotation Yrotation 
					JOINT Head
					{
						OFFSET 6.45672 0.0 0.0
						CHANNELS 6 Xposition Yposition Zposition Zrotation Xrotation Yrotation 
						End Site
						{
							OFFSET 0.0 0.0 0.0
						}
					}
				}
				JOINT Shoulder_L
				{
					OFFSET 12.9942 -0.242716 4.98039
					CHANNELS 6 Xposition Yposition Zposition Zrotation Xrotation Yrotation 
					JOINT UpperArm_L
					{
						OFFSET 5.34809 0.0 0.0
						CHANNELS 6 Xposition Yposition Zposition Zrotation Xrotation Yrotation 
						JOINT LowerArm_L
						{
							OFFSET 24.3286 1.87007e-05 0.0
							CHANNELS 6 Xposition Yposition Zposition Zrotation Xrotation Yrotation 
							JOINT Hand_L
							{
								OFFSET 22.2916 0.0 0.0
								CHANNELS 6 Xposition Yposition Zposition Zrotation Xrotation Yrotation 
								End Site
								{
									OFFSET 0.0 0.0 0.0
								}
							}
						}
					}
				}
				JOINT Shoulder_R
				{
					OFFSET 12.9945 -0.242716 -4.98039
					CHANNELS 6 Xposition Yposition Zposition Zrotation Xrotation Yrotation 
					JOINT UpperArm_R
					{
						OFFSET -5.34813 0.0 0.0
						CHANNELS 6 Xposition Yposition Zposition Zrotation Xrotation Yrotation 
						JOINT LowerArm_R
						{
							OFFSET -24.3289 0.000322201 0.0
							CHANNELS 6 Xposition Yposition Zposition Zrotation Xrotation Yrotation 
							JOINT Hand_R
							{
								OFFSET -22.2915 -0.000108084 0.0
								CHANNELS 6 Xposition Yposition Zposition Zrotation Xrotation Yrotation 
								End Site
								{
									OFFSET 0.0 0.0 0.0
								}
							}
						}
					}
				}
			}
		}
		JOINT UpperLeg_L
		{
			OFFSET -2.19248 -6.46944 0.0
			CHANNELS 6 Xposition Yposition Zposition Zrotation Xrotation Yrotation 
			JOINT LowerLeg_L
			{
				OFFSET 39.0811 0.0 -1.23785e-05
				CHANNELS 6 Xposition Yposition Zposition Zrotation Xrotation Yrotation 
				JOINT Foot_L
				{
					OFFSET 40.9854 0.0 -1.26872e-05
					CHANNELS 6 Xposition Yposition Zposition Zrotation Xrotation Yrotation 
					JOINT Toes_L
					{
						OFFSET 11.7543 0.0 0.0
						CHANNELS 6 Xposition Yposition Zposition Zrotation Xrotation Yrotation 
						End Site
						{
							OFFSET 0.0 0.0 0.0
						}
					}
				}
			}
		}
		JOINT UpperLeg_R
		{
			OFFSET -2.19251 6.46944 0.0
			CHANNELS 6 Xposition Yposition Zposition Zrotation Xrotation Yrotation 
			JOINT LowerLeg_R
			{
				OFFSET -39.0811 -0.00228153 -0.0401928
				CHANNELS 6 Xposition Yposition Zposition Zrotation Xrotation Yrotation 
				JOINT Foot_R
				{
					OFFSET -40.9854 0.0 0.0
					CHANNELS 6 Xposition Yposition Zposition Zrotation Xrotation Yrotation 
					JOINT Toes_R
					{
						OFFSET -11.7543 0.0 0.0
						CHANNELS 6 Xposition Yposition Zposition Zrotation Xrotation Yrotation 
						End Site
						{
							OFFSET 0.0 0.0 0.0
						}
					}
				}
			}
		}
	}
}
MOTION
Frames:	7
Frame Time:	0.0333333
0.000000 0.000000 0.000000 0.000000 0.000000 -0.000000 0.129245 89.963000 54.853200 -87.860200 -2.122500 -176.652000 15.735700 0.000005 -0.000001 83.564600 81.065500 -81.983100 8.984550 -0.406207 -0.000000 10.023800 -1.959030 3.332790 16.377300 -0.000001 -0.000001 8.307830 -1.897660 0.312152 6.456720 -0.000001 -0.000000 2.805270 -1.072540 -1.044700 12.994200 -0.242716 4.980390 -88.402300 -3.878870 -67.592200 5.348090 -0.000007 -0.000001 -57.552800 34.676600 -13.090100 24.328600 0.000019 0.000005 1.633420 1.541940 -46.661000 22.291600 -0.000001 0.000005 1.169500 5.571460 -9.763010 12.994500 -0.242716 -4.980390 89.369200 1.401240 -65.763300 -5.348130 -0.000001 -0.000004 -46.878000 29.608300 -21.649600 -24.328900 0.000322 -0.000009 -2.927590 -3.848840 -37.291800 -22.291500 -0.000108 -0.000004 2.447060 5.549660 -8.689740 -2.192480 -6.469440 -0.000000 -174.709000 -8.448340 -19.808200 39.081100 -0.000007 -0.000012 0.073091 -0.037916 62.578500 40.985400 -0.000006 -0.000013 3.422130 -2.602380 -58.317200 11.754300 -0.000000 0.000003 -0.006206 -0.072705 -19.535900 -2.192510 6.469440 -0.000001 -177.398000 15.400700 168.709000 -39.081100 -0.002282 -0.040193 0.070633 -0.095060 35.314700 -40.985400 0.000008 0.000006 5.333410 -6.276460 -70.836300 -11.754300 -0.000006 -0.000006 -0.010765 -0.109271 -21.026100
0.000000 0.000000 0.000000 0.000000 0.000000 -0.000000 -0.239906 90.712100 51.402500 -88.463100 0.302295 -176.912000 15.735700 0.000005 -0.000001 88.411700 81.138800 -87.278400 8.984550 -0.406207 -0.000000 9.955480 -0.466534 2.305540 16.377300 -0.000001 -0.000001 7.987120 -1.264650 0.413606 6.456720 -0.000001 -0.000000 2.724950 -1.757250 -1.059700 12.994200 -0.242716 4.980390 -88.299500 -3.920690 -66.529300 5.348090 -0.000007 -0.000001 -60.200200 34.443200 -8.292800 24.328600 0.000019 0.000005 1.748620 1.706370 -45.713100 22.291600 -0.000001 0.000005 0.894925 5.565910 -9.480850 12.994500 -0.242716 -4.980390 89.626300 0.879158 -66.975700 -5.348130 -0.000001 -0.000004 -44.551000 29.498000 -26.761300 -24.328900 0.000322 -0.000009 -3.440880 -4.327600 -38.538600 -22.291500 -0.000108 -0.000004 2.391810 5.546890 -8.559960 -2.192480 -6.469440 -0.000000 -176.639000 -10.691400 -22.695700 39.081100 -0.000007 -0.000012 0.051999 -0.037925 53.892300 40.985400 -0.000006 -0.000013 2.891500 -3.670780 -59.412000 11.754300 -0.000000 0.000003 -0.005930 -0.070207 -19.434100 -2.192510 6.469440 -0.000001 -178.873000 14.170300 173.298000 -39.081100 -0.002282 -0.040193 0.053002 -0.083464 30.773000 -40.985400 0.000008 0.000006 4.835000 -4.760650 -70.866700 -11.754300 -0.000006 -0.000006 -0.011174 -0.112212 -21.146500
0.000000 0.000000 0.000000 0.000000 0.000000 -0.000000 -0.576070 90.938700 47.987400 -88.683700 2.900780 -177.204000 15.735700 0.000005 -0.000001 93.484100 81.108800 -92.681100 8.984550 -0.406207 -0.000000 9.977590 1.089340 1.509720 16.377300 -0.000001 -0.000001 7.795000 -0.668127 0.368443 6.456720 -0.000001 -0.000000 2.557640 -2.254530 -0.898126 12.994200 -0.242716 4.980390 -88.244500 -3.824670 -65.321700 5.348090 -0.000007 -0.000001 -62.118800 33.755000 -3.836990 24.328600 0.000019 0.000005 1.931250 1.923710 -45.127700 22.291600 -0.000001 0.000005 0.497248 5.569540 -9.664670 12.994500 -0.242716 -4.980390 89.776900 0.551188 -67.964900 -5.348130 -0.000001 -0.000004 -41.382900 28.988500 -32.014500 -24.328900 0.000322 -0.000009 -4.251390 -5.059640 -40.119100 -22.291500 -0.000108 -0.000004 2.456600 5.544210 -8.435570 -2.192480 -6.469440 -0.000000 -177.571000 -12.519600 -24.379400 39.081100 -0.000007 -0.000012 0.035965 -0.038783 42.839000 40.985400 -0.000006 -0.000013 2.073560 -3.649620 -59.861200 11.754300 -0.000000 0.000003 -0.005747 -0.068526 -19.365500 -2.192510 6.469440 -0.000001 179.954000 13.027000 177.167000 -39.081100 -0.002282 -0.040193 0.044695 -0.079811 27.410200 -40.985400 0.000008 0.000006 4.373830 -3.153920 -71.691400 -11.754300 -0.000006 -0.000006 -0.012701 -0.122817 -21.580800
0.000000 0.000000 0.000000 0.000000 0.000000 -0.000000 -0.852253 90.590700 44.463500 -88.212800 5.778350 -177.664000 15.735700 0.000005 -0.000001 98.956100 80.989400 -98.252400 8.984550 -0.406207 -0.000000 10.027400 2.801590 1.160870 16.377300 -0.000001 -0.000001 7.584380 0.002063 0.184294 6.456720 -0.000001 -0.000000 2.479530 -2.561990 -0.761900 12.994200 -0.242716 4.980390 -88.165100 -3.737240 -63.826600 5.348090 -0.000007 -0.000001 -63.503300 33.008700 0.089846 24.328600 0.000019 0.000005 2.084220 2.088170 -44.964300 22.291600 -0.000001 0.000005 0.326402 5.567710 -9.571410 12.994500 -0.242716 -4.980390 89.946600 0.137221 -68.752100 -5.348130 -0.000001 -0.000004 -38.145600 27.830500 -37.291800 -24.328900 0.000322 -0.000009 -4.908770 -5.583410 -41.428800 -22.291500 -0.000108 -0.000004 2.677620 5.541040 -8.290200 -2.192480 -6.469440 -0.000000 -177.181000 -14.127000 -25.130100 39.081100 -0.000007 -0.000012 0.021207 -0.036092 30.436600 40.985400 -0.000006 -0.000013 1.578140 -2.595430 -59.570600 11.754300 -0.000000 0.000003 -0.005551 -0.066708 -19.291400 -2.192510 6.469440 -0.000001 179.307000 11.804800 179.989000 -39.081100 -0.002282 -0.040193 0.006087 -0.005712 25.925200 -40.985400 0.000008 0.000006 3.505140 -1.218450 -73.422100 -11.754300 -0.000006 -0.000006 -0.012255 -0.119779 -21.456300
0.000000 0.000000 0.000000 0.000000 0.000000 -0.000000 -1.108080 89.741200 40.630300 -86.910500 8.967520 -177.902000 15.735700 0.000005 -0.000001 104.574000 80.666500 -103.711000 8.984550 -0.406207 -0.000000 10.290600 4.684940 1.304270 16.377300 -0.000001 -0.000001 7.477420 0.902254 0.017556 6.456720 -0.000001 -0.000000 2.478650 -2.660550 -0.787453 12.994200 -0.242716 4.980390 -87.963500 -3.855760 -62.130000 5.348090 -0.000007 -0.000001 -64.868500 31.683100 3.743630 24.328600 0.000019 0.000005 2.459330 2.464120 -44.970000 22.291600 -0.000001 0.000005 0.064850 5.562370 -9.304290 12.994500 -0.242716 -4.980390 90.193400 -0.517202 -69.491900 -5.348130 -0.000001 -0.000004 -35.511300 26.173500 -41.982600 -24.328900 0.000322 -0.000009 -5.065050 -5.559650 -42.447500 -22.291500 -0.000108 -0.000004 3.144280 5.542560 -8.359180 -2.192480 -6.469440 -0.000000 -175.054000 -15.673400 -24.960500 39.081100 -0.000007 -0.000012 0.006702 -0.019876 18.633100 40.985400 -0.000006 -0.000013 -0.589115 -0.581200 -59.110800 11.754300 -0.000000 0.000003 -0.006354 -0.074026 -19.589800 -2.192510 6.469440 -0.000001 179.143000 10.254200 -177.288000 -39.081100 -0.002282 -0.040193 -0.067840 0.147940 25.685100 -40.985400 0.000008 0.000006 1.878650 0.811701 -75.768100 -11.754300 -0.000006 -0.000006 -0.011678 -0.115779 -21.292500
0.000000 0.000000 0.000000 0.000000 0.000000 -0.000000 -1.447420 88.560000 36.389300 -85.832700 12.025500 -177.724000 15.735700 0.000005 -0.000001 109.097000 80.103900 -108.158000 8.984550 -0.406207 -0.000000 10.934900 6.453210 1.259920 16.377300 -0.000001 -0.000001 7.478400 1.683590 -0.131318 6.456720 -0.000001 -0.000000 2.397080 -2.698530 -0.723540 12.994200 -0.242716 4.980390 -87.763200 -4.013980 -60.838900 5.348090 -0.000007 -0.000001 -66.093300 29.442500 7.105550 24.328600 0.000019 0.000005 2.552780 2.559960 -44.947600 22.291600 -0.000001 0.000005 -0.131326 5.561740 -9.272310 12.994500 -0.242716 -4.980390 90.389900 -1.078740 -70.124900 -5.348130 -0.000001 -0.000004 -33.908000 23.873900 -45.624500 -24.328900 0.000322 -0.000009 -5.381770 -5.721210 -43.374300 -22.291500 -0.000108 -0.000004 3.534990 5.543550 -8.405120 -2.192480 -6.469440 -0.000000 -173.147000 -17.024300 -24.142100 39.081100 -0.000007 -0.000012 0.002024 -0.011973 9.599750 40.985400 -0.000006 -0.000013 -0.566205 0.520294 -59.745500 11.754300 -0.000000 0.000003 -0.006443 -0.074817 -19.622100 -2.192510 6.469440 -0.000001 178.272000 9.044990 -174.047000 -39.081100 -0.002282 -0.040193 -0.120137 0.254093 25.912200 -40.985400 0.000008 0.000006 0.801486 3.142230 -78.614300 -11.754300 -0.000006 -0.000006 -0.009743 -0.101708 -20.716700
0.000000 0.000000 0.000000 0.000000 0.000000 -0.000000 -1.922160 87.144900 31.721600 -85.446200 14.508400 -177.594000 15.735700 0.000005 -0.000001 112.448000 79.590000 -111.678000 8.984550 -0.406207 -0.000000 11.502800 7.910720 0.743167 16.377300 -0.000001 -0.000001 7.679300 2.053740 -0.053213 6.456720 -0.000001 -0.000000 2.119300 -2.894140 -0.742404 12.994200 -0.242716 4.980390 -87.591700 -4.196610 -60.113200 5.348090 -0.000007 -0.000001 -66.885100 27.503000 9.850660 24.328600 0.000019 0.000005 2.164430 2.185780 -44.738400 22.291600 -0.000001 0.000005 0.064580 5.558570 -9.117320 12.994500 -0.242716 -4.980390 90.518500 -1.454240 -70.372300 -5.348130 -0.000001 -0.000004 -33.378600 21.508100 -48.182100 -24.328900 0.000322 -0.000009 -5.427090 -5.632550 -44.061600 -22.291500 -0.000108 -0.000004 4.127070 5.541660 -8.318010 -2.192480 -6.469440 -0.000000 -172.716000 -19.769300 -25.287000 39.081100 -0.000007 -0.000012 0.000023 -0.000182 7.300590 40.985400 -0.000006 -0.000013 -1.598900 1.358510 -60.278100 11.754300 -0.000000 0.000003 -0.006908 -0.078878 -19.787800 -2.192510 6.469440 -0.000001 176.669000 8.112810 -170.756000 -39.081100 -0.002282 -0.040193 -0.032086 0.071887 26.214900 -40.985400 0.000008 0.000006 1.515380 4.382960 -81.932700 -11.754300 -0.000006 -0.000006 -0.007404 -0.083091 -19.956100
